# xmcd
#
# Track frame offsets: 
#        150
#        11290
#        23435
#        36345
#        54462
#        70387
#        83902
#        102895
#        120952
#        131730
#        145112
#        158622
#        172292
#        185960
#        198795
#        215055
#
# Disc length: 3258 seconds
#
# Revision: 2
# Processed by: cddbd v1.5.2PL0 Copyright (c) Steve Scherf et al.
# Submitted via: ExactAudioCopy v0.95a5
#
DISCID=dc0cb810
DTITLE=Various Artist - Kings of The Road
DYEAR=1991
DGENRE=Country
TTITLE0=Roger Miller - King of The Road
TTITLE1=Charlie Rich - The Most Beautiful Girl
TTITLE2=Marty Robbins - Devil Woman
TTITLE3=Billy Swan - I Can Help
TTITLE4=Bobby Bare - The Gambler
TTITLE5=Johnny Cash - Don't Take Your Guns To Town
TTITLE6=Johnny Cash and Waylon Jennings - Heroes
TTITLE7=Willie Nelson - A Whiter Shade of Pale
TTITLE8=Kris Kristofferson - Help Me Make Through The Night
TTITLE9=Roy Obrison - Oh Pretty Woman
TTITLE10=Chet Atkins and Mark Knopfler - I'll See You In My Dreams
TTITLE11=George Jones - A Good Year For The Roses
TTITLE12=Waylon Jennings, Willie Nelson, Johnny Cash and Kris Kristoffer
TTITLE12=son - Highwayman
TTITLE13=Waylon Jennings - The Eagle
TTITLE14=The Charlie Daniels Band - The Devil Went Down To Georgia
TTITLE15=Kris Kristofferson and Willie Nelson - Under The Gun
EXTD=YEAR: 1991 ID3G: 2
EXTT0=
EXTT1=
EXTT2=
EXTT3=
EXTT4=
EXTT5=
EXTT6=
EXTT7=
EXTT8=
EXTT9=
EXTT10=
EXTT11=
EXTT12=
EXTT13=
EXTT14=
EXTT15=
PLAYORDER=
